<svg xmlns="http://www.w3.org/2000/svg" viewBox="0 0 1271.00 1222.00" data-guides="{&quot;vertical&quot;:[],&quot;horizontal&quot;:[]}"><defs/><path fill="#1b7395" fill-opacity="0.34" stroke="#000000" stroke-opacity="0" stroke-width="1" id="tSvg7c36977ef0" title="Rectangle 1" d="M1.0033 254.8332C1.0033 114.6406 114.6439 0.9937 254.8365 1H1016.1701C1156.3539 1.0063 1270.0033 114.6494 1270.0033 254.8332V967.1668C1270.0033 1107.3506 1156.3539 1220.9937 1016.1701 1221H254.8365C114.6439 1221.0063 1.0033 1107.3594 1.0033 967.1668Z" style="transform-origin: 635.5px 611px;"/><path fill="rgb(0,0,0)" stroke="none" fill-opacity="1" stroke-width="1" stroke-opacity="1" id="tSvge6b365e286" title="Path 3" d="M328.4605 411.522C335.3925 410.727 344.9585 410.937 352.0105 411.201C425.4434 413.95 488.2023 446.7989 516.1212 517.1318C522.9752 534.7108 527.3502 553.1568 529.1202 571.9407C532.6202 606.4127 530.7802 666.1326 530.8492 702.7026C530.9329 725.6892 531.0165 748.6758 531.1002 771.6625C531.1862 795.6124 533.0122 824.1924 523.0672 846.3423C506.1982 883.8923 457.6733 894.6023 422.4154 878.0023C406.9594 870.8023 393.6304 855.3323 389.0814 838.7024C380.2974 806.5924 383.4454 766.5625 383.4334 733.0425C383.4021 700.6426 383.3708 668.2426 383.3394 635.8426C383.2614 602.1227 387.8844 553.6608 351.2005 536.7418C350.7505 536.5381 350.3005 536.3345 349.8505 536.1308C345.2995 534.8588 338.4965 534.0838 333.8905 534.7848C289.9496 541.4718 295.2956 603.3227 295.2446 635.0527C295.2269 674.8159 295.2092 714.5792 295.1916 754.3425C295.0066 788.1424 298.7685 832.3724 277.3066 860.4023C254.5986 890.0523 201.6707 893.9323 173.8087 869.8923C146.2738 846.1323 148.5998 804.3524 148.7028 771.6225C148.7521 749.9425 148.8014 728.2625 148.8508 706.5825C148.8448 674.2626 148.3308 641.7826 149.1608 609.4827C152.0368 497.4208 214.9417 419.7 328.4605 411.522Z" style="display: block;"/><path fill="rgb(0,0,0)" stroke="none" fill-opacity="1" stroke-width="1" stroke-opacity="1" id="tSvg6fd4da8aea" title="Path 4" d="M565.4229 419.2558C585.7598 418.5848 606.6208 419.8688 626.9848 419.6938C649.1848 419.5018 670.3947 422.7038 687.0447 438.6248C700.5847 451.5778 708.4247 467.9417 708.3747 486.8627C708.4447 511.4227 708.2247 536.0756 708.2247 560.6806C708.308 609.9732 708.3913 659.2658 708.4747 708.5584C708.528 731.4717 708.5813 754.385 708.6347 777.2983C708.7747 811.6082 712.1547 840.8782 686.3747 867.5982C642.4348 907.4481 566.7659 881.5681 563.5429 820.2382C562.3259 797.0583 562.4639 775.4283 562.3989 752.2483C562.3812 708.6984 562.3635 665.1485 562.3459 621.5985C562.3029 577.9462 562.2599 534.294 562.2169 490.6417C562.1869 469.6897 562.0579 448.3518 562.2909 427.3858C562.3419 422.8348 563.0369 422.3658 565.4229 419.2558Z" style="display: block;"/><path fill="#000000" stroke="none" fill-opacity="1" stroke-width="1" stroke-opacity="1" id="tSvg13856982e32" title="Path 2" d="M811.4649 225.6598C821.5749 224.6618 871.7149 224.3908 879.4248 227.7778C883.2448 236.1988 880.7248 546.8093 880.6948 582.1933C889.2348 565.7873 912.2048 532.0873 922.9448 514.9844C936.3148 493.6844 949.8447 472.4864 963.5347 451.3935C969.5347 442.1175 978.7247 426.9295 985.2047 419.0705C1006.0647 417.8605 1041.5846 419.4635 1063.6946 419.3685C1081.5846 419.2915 1130.9745 418.1875 1145.4545 420.3545C1145.7978 420.9148 1146.1411 421.4752 1146.4845 422.0355C1146.0345 433.8695 1014.0047 603.8032 995.2347 627.1732C986.4947 638.0632 977.2047 648.5032 967.9347 658.9632C996.6247 688.2131 1047.9546 736.293 1088.9545 742.383C1098.2345 743.793 1107.5845 744.653 1116.9645 744.963C1125.0745 745.183 1162.2644 744.053 1165.7744 747.023C1167.7644 752.723 1166.9344 765.783 1166.8944 772.383C1166.2444 865.3129 1089.7445 899.2528 1006.7547 880.6828C951.5947 868.3429 928.6848 819.6129 906.9748 772.923C899.6248 757.113 889.9048 740.543 880.8748 725.5631C880.7848 755.3764 880.6948 785.1896 880.6048 815.0029C880.6048 831.2729 881.2148 852.9429 880.2148 868.6629C871.6649 876.7128 863.2749 880.4828 851.7949 882.5128C826.3549 886.7928 800.255 880.9028 779.125 866.1029C747.775 843.7729 738.595 810.1629 739.065 773.333C739.325 752.453 739.395 731.4031 739.455 710.5131C739.515 653.5175 739.575 596.5219 739.635 539.5263C739.475 486.0881 739.315 432.6498 739.155 379.2116C739.075 359.9076 737.7351 314.8827 739.645 297.0157C741.135 282.9017 746.245 269.4097 754.475 257.8457C768.685 238.2758 788.135 229.2348 811.4649 225.6598Z" style="display: block;"/><path fill="#e8e8e8" stroke="none" fill-opacity="1" stroke-width="1" stroke-opacity="1" id="tSvgb84570b618" title="Path 10" d="M585.8308 213C591.0042 213.6296 595.0235 214.5422 599.5654 216.5492C611.5368 221.8356 701.0844 271.3846 705.9086 276.5229C710.4282 281.3371 711.2257 287.6991 709.9651 293.3865C707.0181 306.6934 665.985 325.3747 651.1979 333.5489C634.2562 343.016 616.4774 354.1079 597.7997 361.2476C587.2696 367.441 562.6755 355.9088 562.0044 347.0207C559.2332 310.3345 561.1599 270.4457 561.093 233.5384C561.0707 220.9024 571.9698 215.6909 585.8308 213Z" style=""/></svg>